<svg 
  xmlns="http://www.w3.org/2000/svg" 
  xmlns:xlink="http://www.w3.org/1999/xlink" 
  version="1.1" 
  x="0px" 
  y="0px" 
  viewBox="0 0 100 70" 
  height="70px"
  width="70px"
  xml:space="preserve">
  <path 
    stroke-width="2"
    d="M76.629,22.239c-2.527,0-4.937,0.513-7.13,1.44c-0.119-0.812-0.192-1.635-0.209-2.464V18.63v-3.526v-3.259h7.374  c0.547,0.5,1.156,1.293,1.075,1.833c-0.066,0.439-0.676,0.906-1.674,1.281c-0.531,0.199-0.8,0.791-0.601,1.322  c0.199,0.531,0.791,0.8,1.322,0.601c1.795-0.673,2.8-1.651,2.985-2.906c0.304-2.066-1.863-3.784-2.111-3.973  c-0.179-0.136-0.397-0.21-0.622-0.21h-8.774c-0.567,0-1.027,0.46-1.027,1.027v3.258H37.843L35.949,7.18  c1.476,0.209,2.936,0.713,3.932,1.771c0.202,0.215,0.475,0.323,0.748,0.323c0.252,0,0.505-0.092,0.703-0.279  c0.413-0.389,0.433-1.039,0.044-1.451C37.75,3.691,30.307,5.338,29.992,5.41c-0.552,0.126-0.897,0.676-0.772,1.229  c0.126,0.552,0.677,0.898,1.229,0.773c0.031-0.007,1.497-0.33,3.335-0.358l2.209,8.042l-4.805,8.891  c-2.374-1.121-5.023-1.749-7.817-1.749C13.242,22.239,5,30.48,5,40.61s8.242,18.371,18.372,18.371  c9.013,0,16.53-6.524,18.079-15.098l3.22,0.399c0,0,0,0,0,0c0.042,0.005,0.084,0.007,0.125,0.007c0,0,0,0,0.001,0h0  c0.034,0,0.067-0.001,0.1-0.005c0.005,0,0.011-0.001,0.016-0.002c0.028-0.003,0.056-0.007,0.083-0.013  c0.009-0.002,0.017-0.004,0.024-0.006c0.024-0.006,0.048-0.011,0.072-0.019c0.009-0.003,0.019-0.006,0.029-0.01  c0.021-0.007,0.042-0.015,0.062-0.023c0.011-0.004,0.022-0.009,0.033-0.014c0.019-0.008,0.038-0.018,0.056-0.027  c0.011-0.006,0.022-0.012,0.034-0.019c0.017-0.01,0.034-0.021,0.051-0.031c0.011-0.007,0.021-0.014,0.033-0.022  c0.018-0.012,0.034-0.026,0.051-0.04c0.009-0.007,0.018-0.013,0.026-0.021c0.026-0.022,0.05-0.045,0.073-0.069l21.695-22.774v0.03  c0,0.007,0,0.014,0,0.021c0.023,1.148,0.141,2.28,0.332,3.388c-5.556,3.163-9.311,9.139-9.311,15.977  c0,10.13,8.242,18.371,18.371,18.371C86.759,58.981,95,50.74,95,40.61S86.759,22.239,76.629,22.239z M23.372,56.928  c-8.998,0-16.318-7.32-16.318-16.317s7.32-16.317,16.318-16.317c2.44,0,4.758,0.54,6.839,1.504l-7.743,14.326  c-0.161,0.298-0.165,0.657-0.009,0.958c0.156,0.302,0.45,0.507,0.787,0.549l16.162,2.001C37.987,51.19,31.337,56.928,23.372,56.928z   M39.658,41.592l-14.669-1.816l7.026-13c4.605,2.888,7.673,8.009,7.673,13.834C39.688,40.94,39.678,41.267,39.658,41.592z   M32.993,24.967l3.787-7.007l6.62,24.096l-1.701-0.21c0.027-0.409,0.042-0.82,0.042-1.235  C41.742,34.006,38.238,28.205,32.993,24.967z M45.306,41.24l-6.898-25.11h28.829v2.089L45.306,41.24z M76.629,56.928  c-8.998,0-16.317-7.32-16.317-16.317c0-5.844,3.088-10.979,7.717-13.861c2.083,7.995,7.551,14.227,7.833,14.543  c0.203,0.228,0.485,0.345,0.768,0.345c0.243,0,0.487-0.086,0.682-0.259c0.424-0.376,0.462-1.026,0.085-1.449  c-0.067-0.075-5.617-6.398-7.496-14.183c2.052-0.933,4.331-1.453,6.729-1.453c8.998,0,16.317,7.32,16.317,16.317  S85.626,56.928,76.629,56.928z"/></svg>
