<svg 
  xmlns="http://www.w3.org/2000/svg" 
  xmlns:xlink="http://www.w3.org/1999/xlink" 
  version="1.1" 
  x="0px" 
  y="0px" 
  height="85px"
  width="85px"
  viewBox="0 0 100 100" 
  >
  <path 
    d="M68,71v2c0,0.552-0.448,1-1,1H33c-0.552,0-1-0.448-1-1v-2c0-0.552,0.448-1,1-1h34C67.552,70,68,70.448,68,71z M80,28v32  c0,1.104-0.895,2-2,2H22c-1.105,0-2-0.896-2-2V28c0-1.105,0.895-2,2-2h56C79.105,26,80,26.895,80,28z M76,30H24v27h52V30z   M45.707,47.293L41.414,43l4.293-4.293l-1.414-1.414L38.586,43l5.707,5.707L45.707,47.293z M55.707,48.707L61.414,43l-5.707-5.707  l-1.414,1.414L58.586,43l-4.293,4.293L55.707,48.707z M52.78,36H50.72l-3.5,14h2.061L52.78,36z M45,63v6h10v-6H45z"
  />
</svg>
